<svg xmlns="http://www.w3.org/2000/svg" viewBox="0 0 32 32" width="32" height="32" fill="none" stroke="currentColor" stroke-width="2" stroke-linecap="round" stroke-linejoin="round"><title>spasial</title><path d="M16 29.5 C16 29.5 6 21 6 13 A10 10 0 0 1 26 13 C26 21 16 29.5 16 29.5 Z" /><path d="M21.29 13.00C21.39 13.82 21.07 14.97 20.58 15.65C20.09 16.33 19.12 16.78 18.36 17.08C17.59 17.38 16.78 17.46 16.00 17.45C15.22 17.43 14.37 17.35 13.69 17.01C13.00 16.66 12.30 16.04 11.88 15.38C11.46 14.71 11.22 13.82 11.16 13.00C11.11 12.18 11.20 11.19 11.57 10.44C11.95 9.70 12.68 8.87 13.42 8.53C14.15 8.18 15.22 8.23 16.00 8.37C16.78 8.52 17.43 9.00 18.09 9.39C18.75 9.78 19.42 10.11 19.96 10.71C20.49 11.32 21.19 12.18 21.29 13.00Z"/><circle cx="16" cy="13" r="1.8" fill="#FF8A5B" stroke="none"/></svg>